<mxfile host="65bd71144e">
    <diagram name="上云环境" id="4wEGkpCf5vSi97ZC_cVU">
        <mxGraphModel dx="1278" dy="811" grid="1" gridSize="10" guides="1" tooltips="1" connect="1" arrows="1" fold="1" page="1" pageScale="1" pageWidth="827" pageHeight="1169" background="#ffffff" math="0" shadow="0">
            <root>
                <mxCell id="hqEQS-_Kgv2o5S0UOQAj-0"/>
                <mxCell id="hqEQS-_Kgv2o5S0UOQAj-1" parent="hqEQS-_Kgv2o5S0UOQAj-0"/>
                <mxCell id="an7b_glUlWhhbubgW0IX-4" style="edgeStyle=none;html=1;endArrow=none;endFill=0;" parent="hqEQS-_Kgv2o5S0UOQAj-1" edge="1">
                    <mxGeometry relative="1" as="geometry">
                        <mxPoint x="790" y="1070" as="sourcePoint"/>
                        <mxPoint x="790" y="1090" as="targetPoint"/>
                    </mxGeometry>
                </mxCell>
                <mxCell id="6lPIFS5kgiezeE-GSuGC-6" value="&amp;nbsp; 云服务 k8s 集群" style="rounded=0;whiteSpace=wrap;html=1;verticalAlign=top;align=left;fillColor=#dae8fc;strokeColor=#6c8ebf;" parent="hqEQS-_Kgv2o5S0UOQAj-1" vertex="1">
                    <mxGeometry x="210" y="390" width="1160" height="700" as="geometry"/>
                </mxCell>
                <mxCell id="an7b_glUlWhhbubgW0IX-2" style="edgeStyle=none;html=1;endArrow=none;endFill=0;entryX=0.223;entryY=-0.002;entryDx=0;entryDy=0;entryPerimeter=0;" parent="hqEQS-_Kgv2o5S0UOQAj-1" source="hqEQS-_Kgv2o5S0UOQAj-24" target="6lPIFS5kgiezeE-GSuGC-6" edge="1">
                    <mxGeometry relative="1" as="geometry"/>
                </mxCell>
                <mxCell id="hqEQS-_Kgv2o5S0UOQAj-24" value="云服务器 (Docker Compose)" style="verticalAlign=top;align=left;spacingTop=8;spacingLeft=2;spacingRight=12;shape=cube;size=10;direction=south;fontStyle=4;html=1;fillColor=#ffe6cc;strokeColor=#d79b00;" parent="hqEQS-_Kgv2o5S0UOQAj-1" vertex="1">
                    <mxGeometry x="210" y="200" width="520" height="160" as="geometry"/>
                </mxCell>
                <mxCell id="hqEQS-_Kgv2o5S0UOQAj-25" value="nginx" style="html=1;dropTarget=0;movable=1;resizable=1;rotatable=1;deletable=1;editable=1;connectable=1;" parent="hqEQS-_Kgv2o5S0UOQAj-1" vertex="1">
                    <mxGeometry x="390" y="270" width="250" height="50" as="geometry"/>
                </mxCell>
                <mxCell id="hqEQS-_Kgv2o5S0UOQAj-26" value="" style="shape=module;jettyWidth=8;jettyHeight=4;" parent="hqEQS-_Kgv2o5S0UOQAj-25" vertex="1">
                    <mxGeometry x="1" width="20" height="20" relative="1" as="geometry">
                        <mxPoint x="-27" y="7" as="offset"/>
                    </mxGeometry>
                </mxCell>
                <mxCell id="an7b_glUlWhhbubgW0IX-0" style="edgeStyle=none;html=1;endArrow=none;endFill=0;exitX=1.013;exitY=0.776;exitDx=0;exitDy=0;exitPerimeter=0;" parent="hqEQS-_Kgv2o5S0UOQAj-1" source="6lPIFS5kgiezeE-GSuGC-9" target="hqEQS-_Kgv2o5S0UOQAj-24" edge="1">
                    <mxGeometry relative="1" as="geometry"/>
                </mxCell>
                <mxCell id="an7b_glUlWhhbubgW0IX-1" style="edgeStyle=none;html=1;endArrow=none;endFill=0;exitX=1.019;exitY=0.23;exitDx=0;exitDy=0;exitPerimeter=0;" parent="hqEQS-_Kgv2o5S0UOQAj-1" source="6lPIFS5kgiezeE-GSuGC-9" target="6lPIFS5kgiezeE-GSuGC-12" edge="1">
                    <mxGeometry relative="1" as="geometry"/>
                </mxCell>
                <mxCell id="6lPIFS5kgiezeE-GSuGC-9" value="SLB 公网弹性IP" style="verticalAlign=middle;align=center;spacingTop=8;spacingLeft=2;spacingRight=12;shape=cube;size=10;direction=south;fontStyle=4;html=1;fillColor=#e1d5e7;strokeColor=#9673a6;" parent="hqEQS-_Kgv2o5S0UOQAj-1" vertex="1">
                    <mxGeometry x="210" y="90" width="1160" height="80" as="geometry"/>
                </mxCell>
                <mxCell id="an7b_glUlWhhbubgW0IX-3" style="edgeStyle=none;html=1;endArrow=none;endFill=0;entryX=0.771;entryY=-0.003;entryDx=0;entryDy=0;entryPerimeter=0;" parent="hqEQS-_Kgv2o5S0UOQAj-1" source="6lPIFS5kgiezeE-GSuGC-12" target="6lPIFS5kgiezeE-GSuGC-6" edge="1">
                    <mxGeometry relative="1" as="geometry"/>
                </mxCell>
                <mxCell id="6lPIFS5kgiezeE-GSuGC-12" value="云服务器 (Docker Compose)" style="verticalAlign=top;align=left;spacingTop=8;spacingLeft=2;spacingRight=12;shape=cube;size=10;direction=south;fontStyle=4;html=1;fillColor=#ffe6cc;strokeColor=#d79b00;" parent="hqEQS-_Kgv2o5S0UOQAj-1" vertex="1">
                    <mxGeometry x="844" y="200" width="520" height="160" as="geometry"/>
                </mxCell>
                <mxCell id="6lPIFS5kgiezeE-GSuGC-13" value="nginx" style="html=1;dropTarget=0;movable=1;resizable=1;rotatable=1;deletable=1;editable=1;connectable=1;" parent="hqEQS-_Kgv2o5S0UOQAj-1" vertex="1">
                    <mxGeometry x="940" y="270" width="250" height="50" as="geometry"/>
                </mxCell>
                <mxCell id="6lPIFS5kgiezeE-GSuGC-14" value="" style="shape=module;jettyWidth=8;jettyHeight=4;" parent="6lPIFS5kgiezeE-GSuGC-13" vertex="1">
                    <mxGeometry x="1" width="20" height="20" relative="1" as="geometry">
                        <mxPoint x="-27" y="7" as="offset"/>
                    </mxGeometry>
                </mxCell>
                <mxCell id="BVfmIiNZW9gHj_DABtv3-0" value="" style="group" parent="hqEQS-_Kgv2o5S0UOQAj-1" vertex="1" connectable="0">
                    <mxGeometry x="210" y="1110" width="1160" height="175" as="geometry"/>
                </mxCell>
                <mxCell id="hqEQS-_Kgv2o5S0UOQAj-29" value="云服务" style="verticalAlign=top;align=left;spacingTop=8;spacingLeft=2;spacingRight=12;shape=cube;size=10;direction=south;fontStyle=4;html=1;container=0;fillColor=#f8cecc;strokeColor=#b85450;" parent="BVfmIiNZW9gHj_DABtv3-0" vertex="1">
                    <mxGeometry width="1160" height="175" as="geometry"/>
                </mxCell>
                <mxCell id="hqEQS-_Kgv2o5S0UOQAj-32" value="RocketMQ" style="html=1;dropTarget=0;movable=1;resizable=1;rotatable=1;deletable=1;editable=1;connectable=1;" parent="BVfmIiNZW9gHj_DABtv3-0" vertex="1">
                    <mxGeometry x="310" y="71.88000000000011" width="160" height="48.75" as="geometry"/>
                </mxCell>
                <mxCell id="hqEQS-_Kgv2o5S0UOQAj-33" value="" style="shape=module;jettyWidth=8;jettyHeight=4;" parent="hqEQS-_Kgv2o5S0UOQAj-32" vertex="1">
                    <mxGeometry x="1" width="20" height="20" relative="1" as="geometry">
                        <mxPoint x="-27" y="7" as="offset"/>
                    </mxGeometry>
                </mxCell>
                <mxCell id="6lPIFS5kgiezeE-GSuGC-50" value="Nacos" style="html=1;dropTarget=0;movable=1;resizable=1;rotatable=1;deletable=1;editable=1;connectable=1;" parent="BVfmIiNZW9gHj_DABtv3-0" vertex="1">
                    <mxGeometry x="590.0039454691259" y="71.87999999999988" width="161.42742582197272" height="50" as="geometry"/>
                </mxCell>
                <mxCell id="6lPIFS5kgiezeE-GSuGC-51" value="" style="shape=module;jettyWidth=8;jettyHeight=4;" parent="6lPIFS5kgiezeE-GSuGC-50" vertex="1">
                    <mxGeometry x="1" width="20" height="20" relative="1" as="geometry">
                        <mxPoint x="-27" y="7" as="offset"/>
                    </mxGeometry>
                </mxCell>
                <mxCell id="HLIE1MNWEoVo07OFK5VP-1" value="镜像服务" style="html=1;dropTarget=0;movable=1;resizable=1;rotatable=1;deletable=1;editable=1;connectable=1;" parent="BVfmIiNZW9gHj_DABtv3-0" vertex="1">
                    <mxGeometry x="830.0032157177225" y="71.87999999999988" width="168.76503608660786" height="50" as="geometry"/>
                </mxCell>
                <mxCell id="HLIE1MNWEoVo07OFK5VP-2" value="" style="shape=module;jettyWidth=8;jettyHeight=4;" parent="HLIE1MNWEoVo07OFK5VP-1" vertex="1">
                    <mxGeometry x="1" width="20" height="20" relative="1" as="geometry">
                        <mxPoint x="-27" y="7" as="offset"/>
                    </mxGeometry>
                </mxCell>
                <mxCell id="hqEQS-_Kgv2o5S0UOQAj-30" value="MySQL Cluster" style="html=1;dropTarget=0;movable=1;resizable=1;rotatable=1;deletable=1;editable=1;connectable=1;" parent="BVfmIiNZW9gHj_DABtv3-0" vertex="1">
                    <mxGeometry x="60" y="71.88000000000011" width="188.28" height="48.75" as="geometry"/>
                </mxCell>
                <mxCell id="hqEQS-_Kgv2o5S0UOQAj-31" value="" style="shape=module;jettyWidth=8;jettyHeight=4;" parent="hqEQS-_Kgv2o5S0UOQAj-30" vertex="1">
                    <mxGeometry x="1" width="20" height="20" relative="1" as="geometry">
                        <mxPoint x="-27" y="7" as="offset"/>
                    </mxGeometry>
                </mxCell>
                <mxCell id="6lPIFS5kgiezeE-GSuGC-38" value="Server Components" style="html=1;dropTarget=0;movable=1;resizable=1;rotatable=1;deletable=1;editable=1;connectable=1;" parent="hqEQS-_Kgv2o5S0UOQAj-1" vertex="1">
                    <mxGeometry x="867" y="600" width="150" height="50" as="geometry"/>
                </mxCell>
                <mxCell id="6lPIFS5kgiezeE-GSuGC-39" value="" style="shape=module;jettyWidth=8;jettyHeight=4;" parent="6lPIFS5kgiezeE-GSuGC-38" vertex="1">
                    <mxGeometry x="1" width="20" height="20" relative="1" as="geometry">
                        <mxPoint x="-27" y="7" as="offset"/>
                    </mxGeometry>
                </mxCell>
                <mxCell id="hqEQS-_Kgv2o5S0UOQAj-3" value="云主机 k8s Worker01&amp;nbsp; x2" style="verticalAlign=top;align=left;spacingTop=8;spacingLeft=2;spacingRight=12;shape=cube;size=10;direction=south;fontStyle=4;html=1;" parent="hqEQS-_Kgv2o5S0UOQAj-1" vertex="1">
                    <mxGeometry x="260" y="490" width="340" height="360" as="geometry"/>
                </mxCell>
                <mxCell id="6lPIFS5kgiezeE-GSuGC-8" value="" style="group" parent="hqEQS-_Kgv2o5S0UOQAj-1" vertex="1" connectable="0">
                    <mxGeometry x="320" y="570" width="200" height="250" as="geometry"/>
                </mxCell>
                <mxCell id="hqEQS-_Kgv2o5S0UOQAj-4" value="namespace: codepod-server" style="rounded=0;whiteSpace=wrap;html=1;verticalAlign=top;" parent="6lPIFS5kgiezeE-GSuGC-8" vertex="1">
                    <mxGeometry width="200" height="250" as="geometry"/>
                </mxCell>
                <mxCell id="hqEQS-_Kgv2o5S0UOQAj-5" value="Server Components" style="html=1;dropTarget=0;movable=1;resizable=1;rotatable=1;deletable=1;editable=1;connectable=1;" parent="6lPIFS5kgiezeE-GSuGC-8" vertex="1">
                    <mxGeometry x="20" y="50" width="150" height="50" as="geometry"/>
                </mxCell>
                <mxCell id="hqEQS-_Kgv2o5S0UOQAj-6" value="" style="shape=module;jettyWidth=8;jettyHeight=4;" parent="hqEQS-_Kgv2o5S0UOQAj-5" vertex="1">
                    <mxGeometry x="1" width="20" height="20" relative="1" as="geometry">
                        <mxPoint x="-27" y="7" as="offset"/>
                    </mxGeometry>
                </mxCell>
                <mxCell id="ci92_qsQ4H4lK6KoNdcZ-2" value="云主机 k8s Worker02&amp;nbsp; x 2..N" style="verticalAlign=top;align=left;spacingTop=8;spacingLeft=2;spacingRight=12;shape=cube;size=10;direction=south;fontStyle=4;html=1;" vertex="1" parent="hqEQS-_Kgv2o5S0UOQAj-1">
                    <mxGeometry x="820" y="490" width="350" height="370" as="geometry"/>
                </mxCell>
                <mxCell id="ci92_qsQ4H4lK6KoNdcZ-7" value="" style="group" vertex="1" connectable="0" parent="hqEQS-_Kgv2o5S0UOQAj-1">
                    <mxGeometry x="880" y="570" width="200" height="250" as="geometry"/>
                </mxCell>
                <mxCell id="ci92_qsQ4H4lK6KoNdcZ-8" value="namespace: codepod-workspace" style="rounded=0;whiteSpace=wrap;html=1;verticalAlign=top;" vertex="1" parent="ci92_qsQ4H4lK6KoNdcZ-7">
                    <mxGeometry width="200" height="250" as="geometry"/>
                </mxCell>
                <mxCell id="ci92_qsQ4H4lK6KoNdcZ-9" value="CodePod—User1" style="html=1;dropTarget=0;movable=1;resizable=1;rotatable=1;deletable=1;editable=1;connectable=1;" vertex="1" parent="ci92_qsQ4H4lK6KoNdcZ-7">
                    <mxGeometry x="10" y="50" width="170" height="50" as="geometry"/>
                </mxCell>
                <mxCell id="ci92_qsQ4H4lK6KoNdcZ-10" value="" style="shape=module;jettyWidth=8;jettyHeight=4;" vertex="1" parent="ci92_qsQ4H4lK6KoNdcZ-9">
                    <mxGeometry x="1" width="20" height="20" relative="1" as="geometry">
                        <mxPoint x="-27" y="7" as="offset"/>
                    </mxGeometry>
                </mxCell>
                <mxCell id="ci92_qsQ4H4lK6KoNdcZ-11" value="CodePod—User2" style="html=1;dropTarget=0;movable=1;resizable=1;rotatable=1;deletable=1;editable=1;connectable=1;" vertex="1" parent="ci92_qsQ4H4lK6KoNdcZ-7">
                    <mxGeometry x="10" y="110" width="170" height="50" as="geometry"/>
                </mxCell>
                <mxCell id="ci92_qsQ4H4lK6KoNdcZ-12" value="" style="shape=module;jettyWidth=8;jettyHeight=4;" vertex="1" parent="ci92_qsQ4H4lK6KoNdcZ-11">
                    <mxGeometry x="1" width="20" height="20" relative="1" as="geometry">
                        <mxPoint x="-27" y="7" as="offset"/>
                    </mxGeometry>
                </mxCell>
                <mxCell id="ci92_qsQ4H4lK6KoNdcZ-13" value="CodePod—User…" style="html=1;dropTarget=0;movable=1;resizable=1;rotatable=1;deletable=1;editable=1;connectable=1;" vertex="1" parent="ci92_qsQ4H4lK6KoNdcZ-7">
                    <mxGeometry x="10" y="170" width="170" height="50" as="geometry"/>
                </mxCell>
                <mxCell id="ci92_qsQ4H4lK6KoNdcZ-14" value="" style="shape=module;jettyWidth=8;jettyHeight=4;" vertex="1" parent="ci92_qsQ4H4lK6KoNdcZ-13">
                    <mxGeometry x="1" width="20" height="20" relative="1" as="geometry">
                        <mxPoint x="-27" y="7" as="offset"/>
                    </mxGeometry>
                </mxCell>
                <mxCell id="ci92_qsQ4H4lK6KoNdcZ-17" value="云主机 Worker-OpenEBS x3..N" style="verticalAlign=top;align=left;spacingTop=8;spacingLeft=2;spacingRight=12;shape=cube;size=10;direction=south;fontStyle=4;html=1;" vertex="1" parent="hqEQS-_Kgv2o5S0UOQAj-1">
                    <mxGeometry x="370" y="900" width="630" height="160" as="geometry"/>
                </mxCell>
                <mxCell id="ci92_qsQ4H4lK6KoNdcZ-20" value="cStor Pool Instance" style="html=1;dropTarget=0;" vertex="1" parent="hqEQS-_Kgv2o5S0UOQAj-1">
                    <mxGeometry x="550" y="940" width="270" height="50" as="geometry"/>
                </mxCell>
                <mxCell id="ci92_qsQ4H4lK6KoNdcZ-21" value="" style="shape=module;jettyWidth=8;jettyHeight=4;" vertex="1" parent="ci92_qsQ4H4lK6KoNdcZ-20">
                    <mxGeometry x="1" width="20" height="20" relative="1" as="geometry">
                        <mxPoint x="-27" y="7" as="offset"/>
                    </mxGeometry>
                </mxCell>
                <mxCell id="ci92_qsQ4H4lK6KoNdcZ-31" value="BS 01" style="strokeWidth=1;html=1;shape=mxgraph.flowchart.database;whiteSpace=wrap;verticalAlign=middle;" vertex="1" parent="hqEQS-_Kgv2o5S0UOQAj-1">
                    <mxGeometry x="500" y="1000" width="80" height="50" as="geometry"/>
                </mxCell>
                <mxCell id="i6OJAfJe5K7VcDxbokq9-0" value="BS 02" style="strokeWidth=1;html=1;shape=mxgraph.flowchart.database;whiteSpace=wrap;verticalAlign=middle;" vertex="1" parent="hqEQS-_Kgv2o5S0UOQAj-1">
                    <mxGeometry x="650" y="1000" width="80" height="50" as="geometry"/>
                </mxCell>
                <mxCell id="i6OJAfJe5K7VcDxbokq9-1" value="BS..." style="strokeWidth=1;html=1;shape=mxgraph.flowchart.database;whiteSpace=wrap;verticalAlign=middle;" vertex="1" parent="hqEQS-_Kgv2o5S0UOQAj-1">
                    <mxGeometry x="787" y="1000" width="80" height="50" as="geometry"/>
                </mxCell>
            </root>
        </mxGraphModel>
    </diagram>
    <diagram id="rctp01AAbrQpIfx5ytfz" name="私有化环境">
        <mxGraphModel dx="1551" dy="984" grid="1" gridSize="10" guides="1" tooltips="1" connect="1" arrows="1" fold="1" page="1" pageScale="1" pageWidth="827" pageHeight="1169" background="#ffffff" math="0" shadow="0">
            <root>
                <mxCell id="0"/>
                <mxCell id="1" parent="0"/>
                <mxCell id="EFqK1OsE1tqi-KJnkShq-35" value="K8S 集群" style="rounded=0;whiteSpace=wrap;html=1;verticalAlign=top;align=left;fontSize=15;fillColor=#dae8fc;strokeColor=#6c8ebf;dashed=1;" parent="1" vertex="1">
                    <mxGeometry x="180" y="480" width="1280" height="650" as="geometry"/>
                </mxCell>
                <mxCell id="EFqK1OsE1tqi-KJnkShq-27" style="edgeStyle=none;html=1;fontColor=none;endArrow=none;endFill=0;" parent="1" source="vAbi1HSufWRckFC2J_ei-5" target="vAbi1HSufWRckFC2J_ei-6" edge="1">
                    <mxGeometry relative="1" as="geometry"/>
                </mxCell>
                <mxCell id="vAbi1HSufWRckFC2J_ei-5" value="企业网设备（内网DNS）" style="verticalAlign=middle;align=center;spacingTop=8;spacingLeft=2;spacingRight=12;shape=cube;size=10;direction=south;fontStyle=4;html=1;fillColor=#e1d5e7;strokeColor=#9673a6;" parent="1" vertex="1">
                    <mxGeometry x="492.5" y="110" width="485" height="80" as="geometry"/>
                </mxCell>
                <mxCell id="EFqK1OsE1tqi-KJnkShq-18" style="edgeStyle=none;html=1;fontColor=none;endArrow=none;endFill=0;" parent="1" source="vAbi1HSufWRckFC2J_ei-6" target="vAbi1HSufWRckFC2J_ei-9" edge="1">
                    <mxGeometry relative="1" as="geometry"/>
                </mxCell>
                <mxCell id="vAbi1HSufWRckFC2J_ei-82" value="" style="group" parent="1" vertex="1" connectable="0">
                    <mxGeometry x="1130" y="240" width="290" height="190" as="geometry"/>
                </mxCell>
                <mxCell id="vAbi1HSufWRckFC2J_ei-54" value="虚拟机&amp;nbsp; x3" style="verticalAlign=top;align=left;spacingTop=8;spacingLeft=2;spacingRight=12;shape=cube;size=10;direction=south;fontStyle=4;html=1;container=0;" parent="vAbi1HSufWRckFC2J_ei-82" vertex="1">
                    <mxGeometry width="290.00000000000006" height="189.99999999999997" as="geometry"/>
                </mxCell>
                <mxCell id="vAbi1HSufWRckFC2J_ei-26" value="Nacos" style="html=1;dropTarget=0;movable=1;resizable=1;rotatable=1;deletable=1;editable=1;connectable=1;" parent="vAbi1HSufWRckFC2J_ei-82" vertex="1">
                    <mxGeometry x="21.481481481481485" y="65.14285714285714" width="96.66666666666667" height="43.42857142857142" as="geometry"/>
                </mxCell>
                <mxCell id="vAbi1HSufWRckFC2J_ei-27" value="" style="shape=module;jettyWidth=8;jettyHeight=4;" parent="vAbi1HSufWRckFC2J_ei-26" vertex="1">
                    <mxGeometry x="1" width="20" height="20" relative="1" as="geometry">
                        <mxPoint x="-27" y="7" as="offset"/>
                    </mxGeometry>
                </mxCell>
                <mxCell id="vAbi1HSufWRckFC2J_ei-55" value="Nacos" style="html=1;dropTarget=0;movable=1;resizable=1;rotatable=1;deletable=1;editable=1;connectable=1;" parent="vAbi1HSufWRckFC2J_ei-82" vertex="1">
                    <mxGeometry x="161.11111111111111" y="65.14285714285714" width="96.66666666666667" height="43.42857142857142" as="geometry"/>
                </mxCell>
                <mxCell id="vAbi1HSufWRckFC2J_ei-56" value="" style="shape=module;jettyWidth=8;jettyHeight=4;" parent="vAbi1HSufWRckFC2J_ei-55" vertex="1">
                    <mxGeometry x="1" width="20" height="20" relative="1" as="geometry">
                        <mxPoint x="-27" y="7" as="offset"/>
                    </mxGeometry>
                </mxCell>
                <mxCell id="vAbi1HSufWRckFC2J_ei-61" style="edgeStyle=none;html=1;endArrow=none;endFill=0;" parent="vAbi1HSufWRckFC2J_ei-82" source="vAbi1HSufWRckFC2J_ei-26" target="vAbi1HSufWRckFC2J_ei-55" edge="1">
                    <mxGeometry relative="1" as="geometry"/>
                </mxCell>
                <mxCell id="vAbi1HSufWRckFC2J_ei-57" value="Nacos" style="html=1;dropTarget=0;movable=1;resizable=1;rotatable=1;deletable=1;editable=1;connectable=1;" parent="vAbi1HSufWRckFC2J_ei-82" vertex="1">
                    <mxGeometry x="85.92592592592594" y="132.32685714285725" width="96.66666666666667" height="41.387428571428565" as="geometry"/>
                </mxCell>
                <mxCell id="vAbi1HSufWRckFC2J_ei-58" value="" style="shape=module;jettyWidth=8;jettyHeight=4;" parent="vAbi1HSufWRckFC2J_ei-57" vertex="1">
                    <mxGeometry x="1" width="20" height="20" relative="1" as="geometry">
                        <mxPoint x="-27" y="7" as="offset"/>
                    </mxGeometry>
                </mxCell>
                <mxCell id="vAbi1HSufWRckFC2J_ei-59" style="edgeStyle=none;html=1;endArrow=none;endFill=0;" parent="vAbi1HSufWRckFC2J_ei-82" source="vAbi1HSufWRckFC2J_ei-26" target="vAbi1HSufWRckFC2J_ei-57" edge="1">
                    <mxGeometry relative="1" as="geometry"/>
                </mxCell>
                <mxCell id="vAbi1HSufWRckFC2J_ei-60" style="edgeStyle=none;html=1;endArrow=none;endFill=0;" parent="vAbi1HSufWRckFC2J_ei-82" source="vAbi1HSufWRckFC2J_ei-55" target="vAbi1HSufWRckFC2J_ei-57" edge="1">
                    <mxGeometry relative="1" as="geometry"/>
                </mxCell>
                <mxCell id="EFqK1OsE1tqi-KJnkShq-39" value="keepalived" style="html=1;dropTarget=0;movable=1;resizable=1;rotatable=1;deletable=1;editable=1;connectable=1;" parent="vAbi1HSufWRckFC2J_ei-82" vertex="1">
                    <mxGeometry x="85.92592592592594" y="21.71428571428571" width="128.8888888888889" height="32.57142857142857" as="geometry"/>
                </mxCell>
                <mxCell id="EFqK1OsE1tqi-KJnkShq-40" value="" style="shape=module;jettyWidth=8;jettyHeight=4;" parent="EFqK1OsE1tqi-KJnkShq-39" vertex="1">
                    <mxGeometry x="1" width="20" height="20" relative="1" as="geometry">
                        <mxPoint x="-27" y="7" as="offset"/>
                    </mxGeometry>
                </mxCell>
                <mxCell id="vAbi1HSufWRckFC2J_ei-83" value="" style="group" parent="1" vertex="1" connectable="0">
                    <mxGeometry x="1080" y="1190" width="270" height="175" as="geometry"/>
                </mxCell>
                <mxCell id="vAbi1HSufWRckFC2J_ei-49" value="虚拟机&amp;nbsp; x2" style="verticalAlign=top;align=left;spacingTop=8;spacingLeft=2;spacingRight=12;shape=cube;size=10;direction=south;fontStyle=4;html=1;container=0;" parent="vAbi1HSufWRckFC2J_ei-83" vertex="1">
                    <mxGeometry width="270" height="175" as="geometry"/>
                </mxCell>
                <mxCell id="vAbi1HSufWRckFC2J_ei-24" value="RocketMQ NameSvr" style="html=1;dropTarget=0;movable=1;resizable=1;rotatable=1;deletable=1;editable=1;connectable=1;" parent="vAbi1HSufWRckFC2J_ei-83" vertex="1">
                    <mxGeometry x="40" y="50" width="180" height="38.12" as="geometry"/>
                </mxCell>
                <mxCell id="vAbi1HSufWRckFC2J_ei-25" value="" style="shape=module;jettyWidth=8;jettyHeight=4;" parent="vAbi1HSufWRckFC2J_ei-24" vertex="1">
                    <mxGeometry x="1" width="20" height="20" relative="1" as="geometry">
                        <mxPoint x="-27" y="7" as="offset"/>
                    </mxGeometry>
                </mxCell>
                <mxCell id="vAbi1HSufWRckFC2J_ei-50" value="RocketMQ Broker" style="html=1;dropTarget=0;movable=1;resizable=1;rotatable=1;deletable=1;editable=1;connectable=1;" parent="vAbi1HSufWRckFC2J_ei-83" vertex="1">
                    <mxGeometry x="40" y="100" width="180" height="38.12" as="geometry"/>
                </mxCell>
                <mxCell id="vAbi1HSufWRckFC2J_ei-51" value="" style="shape=module;jettyWidth=8;jettyHeight=4;" parent="vAbi1HSufWRckFC2J_ei-50" vertex="1">
                    <mxGeometry x="1" width="20" height="20" relative="1" as="geometry">
                        <mxPoint x="-27" y="7" as="offset"/>
                    </mxGeometry>
                </mxCell>
                <mxCell id="vAbi1HSufWRckFC2J_ei-53" value="2m2s" style="text;html=1;align=center;verticalAlign=middle;resizable=0;points=[];autosize=1;strokeColor=none;fillColor=none;" parent="vAbi1HSufWRckFC2J_ei-83" vertex="1">
                    <mxGeometry x="100" y="145" width="50" height="30" as="geometry"/>
                </mxCell>
                <mxCell id="EFqK1OsE1tqi-KJnkShq-11" value="" style="group" parent="1" vertex="1" connectable="0">
                    <mxGeometry x="605" y="510" width="270" height="340" as="geometry"/>
                </mxCell>
                <mxCell id="vAbi1HSufWRckFC2J_ei-33" value="虚拟机 Worker x N" style="verticalAlign=top;align=left;spacingTop=8;spacingLeft=2;spacingRight=12;shape=cube;size=10;direction=south;fontStyle=4;html=1;" parent="EFqK1OsE1tqi-KJnkShq-11" vertex="1">
                    <mxGeometry width="270" height="340" as="geometry"/>
                </mxCell>
                <mxCell id="vAbi1HSufWRckFC2J_ei-38" value="" style="group" parent="EFqK1OsE1tqi-KJnkShq-11" vertex="1" connectable="0">
                    <mxGeometry x="30" y="60" width="200" height="250" as="geometry"/>
                </mxCell>
                <mxCell id="vAbi1HSufWRckFC2J_ei-39" value="namespace: codepod-workspace" style="rounded=0;whiteSpace=wrap;html=1;verticalAlign=top;" parent="vAbi1HSufWRckFC2J_ei-38" vertex="1">
                    <mxGeometry width="200" height="250" as="geometry"/>
                </mxCell>
                <mxCell id="vAbi1HSufWRckFC2J_ei-40" value="CodePod—User1" style="html=1;dropTarget=0;movable=1;resizable=1;rotatable=1;deletable=1;editable=1;connectable=1;" parent="vAbi1HSufWRckFC2J_ei-38" vertex="1">
                    <mxGeometry x="10" y="50" width="170" height="50" as="geometry"/>
                </mxCell>
                <mxCell id="vAbi1HSufWRckFC2J_ei-41" value="" style="shape=module;jettyWidth=8;jettyHeight=4;" parent="vAbi1HSufWRckFC2J_ei-40" vertex="1">
                    <mxGeometry x="1" width="20" height="20" relative="1" as="geometry">
                        <mxPoint x="-27" y="7" as="offset"/>
                    </mxGeometry>
                </mxCell>
                <mxCell id="vAbi1HSufWRckFC2J_ei-42" value="CodePod—User2" style="html=1;dropTarget=0;movable=1;resizable=1;rotatable=1;deletable=1;editable=1;connectable=1;" parent="vAbi1HSufWRckFC2J_ei-38" vertex="1">
                    <mxGeometry x="10" y="110" width="170" height="50" as="geometry"/>
                </mxCell>
                <mxCell id="vAbi1HSufWRckFC2J_ei-43" value="" style="shape=module;jettyWidth=8;jettyHeight=4;" parent="vAbi1HSufWRckFC2J_ei-42" vertex="1">
                    <mxGeometry x="1" width="20" height="20" relative="1" as="geometry">
                        <mxPoint x="-27" y="7" as="offset"/>
                    </mxGeometry>
                </mxCell>
                <mxCell id="vAbi1HSufWRckFC2J_ei-44" value="CodePod—User…" style="html=1;dropTarget=0;movable=1;resizable=1;rotatable=1;deletable=1;editable=1;connectable=1;" parent="vAbi1HSufWRckFC2J_ei-38" vertex="1">
                    <mxGeometry x="10" y="170" width="170" height="50" as="geometry"/>
                </mxCell>
                <mxCell id="vAbi1HSufWRckFC2J_ei-45" value="" style="shape=module;jettyWidth=8;jettyHeight=4;" parent="vAbi1HSufWRckFC2J_ei-44" vertex="1">
                    <mxGeometry x="1" width="20" height="20" relative="1" as="geometry">
                        <mxPoint x="-27" y="7" as="offset"/>
                    </mxGeometry>
                </mxCell>
                <mxCell id="EFqK1OsE1tqi-KJnkShq-17" style="edgeStyle=none;html=1;fontColor=none;endArrow=none;endFill=0;" parent="1" source="vAbi1HSufWRckFC2J_ei-78" target="vAbi1HSufWRckFC2J_ei-6" edge="1">
                    <mxGeometry relative="1" as="geometry">
                        <mxPoint x="385.55555555555566" y="510" as="sourcePoint"/>
                    </mxGeometry>
                </mxCell>
                <mxCell id="EFqK1OsE1tqi-KJnkShq-19" style="edgeStyle=none;html=1;fontColor=none;endArrow=none;endFill=0;" parent="1" source="vAbi1HSufWRckFC2J_ei-54" target="vAbi1HSufWRckFC2J_ei-6" edge="1">
                    <mxGeometry relative="1" as="geometry"/>
                </mxCell>
                <mxCell id="EFqK1OsE1tqi-KJnkShq-20" style="edgeStyle=none;html=1;fontColor=none;endArrow=none;endFill=0;" parent="1" source="vAbi1HSufWRckFC2J_ei-33" target="vAbi1HSufWRckFC2J_ei-6" edge="1">
                    <mxGeometry relative="1" as="geometry"/>
                </mxCell>
                <mxCell id="EFqK1OsE1tqi-KJnkShq-22" style="edgeStyle=none;html=1;fontColor=none;endArrow=none;endFill=0;" parent="1" source="vAbi1HSufWRckFC2J_ei-9" target="vAbi1HSufWRckFC2J_ei-54" edge="1">
                    <mxGeometry relative="1" as="geometry"/>
                </mxCell>
                <mxCell id="EFqK1OsE1tqi-KJnkShq-23" value="" style="group" parent="1" vertex="1" connectable="0">
                    <mxGeometry x="720" y="1190" width="270" height="175" as="geometry"/>
                </mxCell>
                <mxCell id="vAbi1HSufWRckFC2J_ei-23" value="虚拟机&amp;nbsp; x2" style="verticalAlign=top;align=left;spacingTop=8;spacingLeft=2;spacingRight=12;shape=cube;size=10;direction=south;fontStyle=4;html=1;container=0;" parent="EFqK1OsE1tqi-KJnkShq-23" vertex="1">
                    <mxGeometry width="270" height="175" as="geometry"/>
                </mxCell>
                <mxCell id="vAbi1HSufWRckFC2J_ei-30" value="MySQL Master" style="html=1;dropTarget=0;movable=1;resizable=1;rotatable=1;deletable=1;editable=1;connectable=1;" parent="EFqK1OsE1tqi-KJnkShq-23" vertex="1">
                    <mxGeometry x="65" y="60" width="140" height="48.12" as="geometry"/>
                </mxCell>
                <mxCell id="vAbi1HSufWRckFC2J_ei-31" value="" style="shape=module;jettyWidth=8;jettyHeight=4;" parent="vAbi1HSufWRckFC2J_ei-30" vertex="1">
                    <mxGeometry x="1" width="20" height="20" relative="1" as="geometry">
                        <mxPoint x="-27" y="7" as="offset"/>
                    </mxGeometry>
                </mxCell>
                <mxCell id="vAbi1HSufWRckFC2J_ei-46" value="MySQL Slave" style="html=1;dropTarget=0;movable=1;resizable=1;rotatable=1;deletable=1;editable=1;connectable=1;" parent="EFqK1OsE1tqi-KJnkShq-23" vertex="1">
                    <mxGeometry x="65" y="120" width="140" height="48.12" as="geometry"/>
                </mxCell>
                <mxCell id="vAbi1HSufWRckFC2J_ei-47" value="" style="shape=module;jettyWidth=8;jettyHeight=4;" parent="vAbi1HSufWRckFC2J_ei-46" vertex="1">
                    <mxGeometry x="1" width="20" height="20" relative="1" as="geometry">
                        <mxPoint x="-27" y="7" as="offset"/>
                    </mxGeometry>
                </mxCell>
                <mxCell id="vAbi1HSufWRckFC2J_ei-48" style="edgeStyle=none;html=1;endArrow=none;endFill=0;" parent="EFqK1OsE1tqi-KJnkShq-23" source="vAbi1HSufWRckFC2J_ei-30" target="vAbi1HSufWRckFC2J_ei-46" edge="1">
                    <mxGeometry relative="1" as="geometry"/>
                </mxCell>
                <mxCell id="EFqK1OsE1tqi-KJnkShq-62" value="keepalived" style="html=1;dropTarget=0;movable=1;resizable=1;rotatable=1;deletable=1;editable=1;connectable=1;" parent="EFqK1OsE1tqi-KJnkShq-23" vertex="1">
                    <mxGeometry x="75" y="20" width="120" height="30" as="geometry"/>
                </mxCell>
                <mxCell id="EFqK1OsE1tqi-KJnkShq-63" value="" style="shape=module;jettyWidth=8;jettyHeight=4;" parent="EFqK1OsE1tqi-KJnkShq-62" vertex="1">
                    <mxGeometry x="1" width="20" height="20" relative="1" as="geometry">
                        <mxPoint x="-27" y="7" as="offset"/>
                    </mxGeometry>
                </mxCell>
                <mxCell id="vAbi1HSufWRckFC2J_ei-78" value="虚拟机&amp;nbsp; Master x3" style="verticalAlign=top;align=left;spacingTop=8;spacingLeft=2;spacingRight=12;shape=cube;size=10;direction=south;fontStyle=4;html=1;" parent="1" vertex="1">
                    <mxGeometry x="270" y="510" width="210" height="80" as="geometry"/>
                </mxCell>
                <mxCell id="EFqK1OsE1tqi-KJnkShq-34" value="" style="group" parent="1" vertex="1" connectable="0">
                    <mxGeometry x="300" y="1190" width="320" height="175" as="geometry"/>
                </mxCell>
                <mxCell id="vAbi1HSufWRckFC2J_ei-62" value="虚拟机&amp;nbsp; x2" style="verticalAlign=top;align=left;spacingTop=8;spacingLeft=2;spacingRight=12;shape=cube;size=10;direction=south;fontStyle=4;html=1;container=0;" parent="EFqK1OsE1tqi-KJnkShq-34" vertex="1">
                    <mxGeometry width="320" height="175" as="geometry"/>
                </mxCell>
                <mxCell id="vAbi1HSufWRckFC2J_ei-28" value="NFS&amp;nbsp; Master" style="html=1;dropTarget=0;movable=1;resizable=1;rotatable=1;deletable=1;editable=1;connectable=1;" parent="EFqK1OsE1tqi-KJnkShq-34" vertex="1">
                    <mxGeometry x="30" y="100" width="115" height="50" as="geometry"/>
                </mxCell>
                <mxCell id="vAbi1HSufWRckFC2J_ei-29" value="" style="shape=module;jettyWidth=8;jettyHeight=4;" parent="vAbi1HSufWRckFC2J_ei-28" vertex="1">
                    <mxGeometry x="1" width="20" height="20" relative="1" as="geometry">
                        <mxPoint x="-27" y="7" as="offset"/>
                    </mxGeometry>
                </mxCell>
                <mxCell id="EFqK1OsE1tqi-KJnkShq-33" style="edgeStyle=none;html=1;fontColor=none;endArrow=none;endFill=0;" parent="EFqK1OsE1tqi-KJnkShq-34" source="vAbi1HSufWRckFC2J_ei-28" target="2" edge="1">
                    <mxGeometry relative="1" as="geometry">
                        <mxPoint x="180" y="125" as="targetPoint"/>
                    </mxGeometry>
                </mxCell>
                <mxCell id="EFqK1OsE1tqi-KJnkShq-31" value="keepalived" style="html=1;dropTarget=0;movable=1;resizable=1;rotatable=1;deletable=1;editable=1;connectable=1;" parent="EFqK1OsE1tqi-KJnkShq-34" vertex="1">
                    <mxGeometry x="100" y="30" width="120" height="40" as="geometry"/>
                </mxCell>
                <mxCell id="EFqK1OsE1tqi-KJnkShq-32" value="" style="shape=module;jettyWidth=8;jettyHeight=4;" parent="EFqK1OsE1tqi-KJnkShq-31" vertex="1">
                    <mxGeometry x="1" width="20" height="20" relative="1" as="geometry">
                        <mxPoint x="-27" y="7" as="offset"/>
                    </mxGeometry>
                </mxCell>
                <mxCell id="2" value="NFS&amp;nbsp; Slave" style="html=1;dropTarget=0;movable=1;resizable=1;rotatable=1;deletable=1;editable=1;connectable=1;" parent="EFqK1OsE1tqi-KJnkShq-34" vertex="1">
                    <mxGeometry x="180" y="100" width="115" height="50" as="geometry"/>
                </mxCell>
                <mxCell id="3" value="" style="shape=module;jettyWidth=8;jettyHeight=4;" parent="2" vertex="1">
                    <mxGeometry x="1" width="20" height="20" relative="1" as="geometry">
                        <mxPoint x="-27" y="7" as="offset"/>
                    </mxGeometry>
                </mxCell>
                <mxCell id="EFqK1OsE1tqi-KJnkShq-36" value="" style="group" parent="1" vertex="1" connectable="0">
                    <mxGeometry x="1030" y="510" width="290" height="340" as="geometry"/>
                </mxCell>
                <mxCell id="vAbi1HSufWRckFC2J_ei-9" value="虚拟机 Worker x2" style="verticalAlign=top;align=left;spacingTop=8;spacingLeft=2;spacingRight=12;shape=cube;size=10;direction=south;fontStyle=4;html=1;" parent="EFqK1OsE1tqi-KJnkShq-36" vertex="1">
                    <mxGeometry width="290" height="340" as="geometry"/>
                </mxCell>
                <mxCell id="vAbi1HSufWRckFC2J_ei-19" value="namespace: codepod-server" style="rounded=0;whiteSpace=wrap;html=1;verticalAlign=top;" parent="EFqK1OsE1tqi-KJnkShq-36" vertex="1">
                    <mxGeometry x="20" y="80" width="240" height="170" as="geometry"/>
                </mxCell>
                <mxCell id="vAbi1HSufWRckFC2J_ei-20" value="Server Components" style="html=1;dropTarget=0;movable=1;resizable=1;rotatable=1;deletable=1;editable=1;connectable=1;fontSize=15;" parent="EFqK1OsE1tqi-KJnkShq-36" vertex="1">
                    <mxGeometry x="50" y="130" width="180" height="50" as="geometry"/>
                </mxCell>
                <mxCell id="vAbi1HSufWRckFC2J_ei-21" value="" style="shape=module;jettyWidth=8;jettyHeight=4;" parent="vAbi1HSufWRckFC2J_ei-20" vertex="1">
                    <mxGeometry x="1" width="20" height="20" relative="1" as="geometry">
                        <mxPoint x="-27" y="7" as="offset"/>
                    </mxGeometry>
                </mxCell>
                <mxCell id="EFqK1OsE1tqi-KJnkShq-42" value="虚拟机 Worker x 2" style="verticalAlign=top;align=left;spacingTop=8;spacingLeft=2;spacingRight=12;shape=cube;size=10;direction=south;fontStyle=4;html=1;" parent="1" vertex="1">
                    <mxGeometry x="215" y="660" width="305" height="200" as="geometry"/>
                </mxCell>
                <mxCell id="EFqK1OsE1tqi-KJnkShq-51" value="Harbor" style="html=1;dropTarget=0;movable=1;resizable=1;rotatable=1;deletable=1;editable=1;connectable=1;" parent="1" vertex="1">
                    <mxGeometry x="240" y="725" width="115" height="50" as="geometry"/>
                </mxCell>
                <mxCell id="EFqK1OsE1tqi-KJnkShq-52" value="" style="shape=module;jettyWidth=8;jettyHeight=4;" parent="EFqK1OsE1tqi-KJnkShq-51" vertex="1">
                    <mxGeometry x="1" width="20" height="20" relative="1" as="geometry">
                        <mxPoint x="-27" y="7" as="offset"/>
                    </mxGeometry>
                </mxCell>
                <mxCell id="EFqK1OsE1tqi-KJnkShq-55" value="Prometheus" style="html=1;dropTarget=0;movable=1;resizable=1;rotatable=1;deletable=1;editable=1;connectable=1;" parent="1" vertex="1">
                    <mxGeometry x="380" y="725" width="115" height="50" as="geometry"/>
                </mxCell>
                <mxCell id="EFqK1OsE1tqi-KJnkShq-56" value="" style="shape=module;jettyWidth=8;jettyHeight=4;" parent="EFqK1OsE1tqi-KJnkShq-55" vertex="1">
                    <mxGeometry x="1" width="20" height="20" relative="1" as="geometry">
                        <mxPoint x="-27" y="7" as="offset"/>
                    </mxGeometry>
                </mxCell>
                <mxCell id="EFqK1OsE1tqi-KJnkShq-57" value="Grafana" style="html=1;dropTarget=0;movable=1;resizable=1;rotatable=1;deletable=1;editable=1;connectable=1;" parent="1" vertex="1">
                    <mxGeometry x="380" y="790" width="115" height="50" as="geometry"/>
                </mxCell>
                <mxCell id="EFqK1OsE1tqi-KJnkShq-58" value="" style="shape=module;jettyWidth=8;jettyHeight=4;" parent="EFqK1OsE1tqi-KJnkShq-57" vertex="1">
                    <mxGeometry x="1" width="20" height="20" relative="1" as="geometry">
                        <mxPoint x="-27" y="7" as="offset"/>
                    </mxGeometry>
                </mxCell>
                <mxCell id="QD1i0kjurF8h8y5w4040-3" value="" style="group" parent="1" vertex="1" connectable="0">
                    <mxGeometry x="490" y="240" width="490" height="190" as="geometry"/>
                </mxCell>
                <mxCell id="vAbi1HSufWRckFC2J_ei-6" value="虚拟机 x2" style="verticalAlign=top;align=left;spacingTop=8;spacingLeft=2;spacingRight=12;shape=cube;size=10;direction=south;fontStyle=4;html=1;fillColor=#ffe6cc;strokeColor=#d79b00;" parent="QD1i0kjurF8h8y5w4040-3" vertex="1">
                    <mxGeometry width="490" height="190" as="geometry"/>
                </mxCell>
                <mxCell id="vAbi1HSufWRckFC2J_ei-7" value="nginx" style="html=1;dropTarget=0;movable=1;resizable=1;rotatable=1;deletable=1;editable=1;connectable=1;" parent="QD1i0kjurF8h8y5w4040-3" vertex="1">
                    <mxGeometry x="105" y="110" width="120" height="50" as="geometry"/>
                </mxCell>
                <mxCell id="vAbi1HSufWRckFC2J_ei-8" value="" style="shape=module;jettyWidth=8;jettyHeight=4;" parent="vAbi1HSufWRckFC2J_ei-7" vertex="1">
                    <mxGeometry x="1" width="20" height="20" relative="1" as="geometry">
                        <mxPoint x="-27" y="7" as="offset"/>
                    </mxGeometry>
                </mxCell>
                <mxCell id="EFqK1OsE1tqi-KJnkShq-6" style="edgeStyle=none;html=1;endArrow=none;endFill=0;" parent="QD1i0kjurF8h8y5w4040-3" source="EFqK1OsE1tqi-KJnkShq-1" target="vAbi1HSufWRckFC2J_ei-7" edge="1">
                    <mxGeometry relative="1" as="geometry"/>
                </mxCell>
                <mxCell id="EFqK1OsE1tqi-KJnkShq-1" value="nginx" style="html=1;dropTarget=0;movable=1;resizable=1;rotatable=1;deletable=1;editable=1;connectable=1;" parent="QD1i0kjurF8h8y5w4040-3" vertex="1">
                    <mxGeometry x="310" y="110" width="120" height="50" as="geometry"/>
                </mxCell>
                <mxCell id="EFqK1OsE1tqi-KJnkShq-2" value="" style="shape=module;jettyWidth=8;jettyHeight=4;" parent="EFqK1OsE1tqi-KJnkShq-1" vertex="1">
                    <mxGeometry x="1" width="20" height="20" relative="1" as="geometry">
                        <mxPoint x="-27" y="7" as="offset"/>
                    </mxGeometry>
                </mxCell>
                <mxCell id="EFqK1OsE1tqi-KJnkShq-8" value="keepalived" style="html=1;dropTarget=0;movable=1;resizable=1;rotatable=1;deletable=1;editable=1;connectable=1;" parent="QD1i0kjurF8h8y5w4040-3" vertex="1">
                    <mxGeometry x="190" y="30" width="120" height="40" as="geometry"/>
                </mxCell>
                <mxCell id="EFqK1OsE1tqi-KJnkShq-9" value="" style="shape=module;jettyWidth=8;jettyHeight=4;" parent="EFqK1OsE1tqi-KJnkShq-8" vertex="1">
                    <mxGeometry x="1" width="20" height="20" relative="1" as="geometry">
                        <mxPoint x="-27" y="7" as="offset"/>
                    </mxGeometry>
                </mxCell>
                <mxCell id="_m1Fh2HmjgsSsvChBEff-3" style="edgeStyle=none;html=1;endArrow=none;endFill=0;" edge="1" parent="1" source="vAbi1HSufWRckFC2J_ei-62" target="EFqK1OsE1tqi-KJnkShq-35">
                    <mxGeometry relative="1" as="geometry"/>
                </mxCell>
                <mxCell id="_m1Fh2HmjgsSsvChBEff-4" style="edgeStyle=none;html=1;endArrow=none;endFill=0;" edge="1" parent="1" source="vAbi1HSufWRckFC2J_ei-23" target="EFqK1OsE1tqi-KJnkShq-35">
                    <mxGeometry relative="1" as="geometry"/>
                </mxCell>
                <mxCell id="_m1Fh2HmjgsSsvChBEff-5" style="edgeStyle=none;html=1;endArrow=none;endFill=0;" edge="1" parent="1" source="vAbi1HSufWRckFC2J_ei-49" target="EFqK1OsE1tqi-KJnkShq-35">
                    <mxGeometry relative="1" as="geometry"/>
                </mxCell>
                <mxCell id="1GEkmqp5lVpvh_jhBL9g-8" value="" style="group" vertex="1" connectable="0" parent="1">
                    <mxGeometry x="600" y="920" width="440" height="160" as="geometry"/>
                </mxCell>
                <mxCell id="1GEkmqp5lVpvh_jhBL9g-4" value="虚拟机 Worker-OpenEBS x3" style="verticalAlign=top;align=left;spacingTop=8;spacingLeft=2;spacingRight=12;shape=cube;size=10;direction=south;fontStyle=4;html=1;" vertex="1" parent="1GEkmqp5lVpvh_jhBL9g-8">
                    <mxGeometry width="440" height="160" as="geometry"/>
                </mxCell>
                <mxCell id="1GEkmqp5lVpvh_jhBL9g-5" value="cStor Pool Instance" style="html=1;dropTarget=0;" vertex="1" parent="1GEkmqp5lVpvh_jhBL9g-8">
                    <mxGeometry x="120" y="40" width="210" height="50" as="geometry"/>
                </mxCell>
                <mxCell id="1GEkmqp5lVpvh_jhBL9g-6" value="" style="shape=module;jettyWidth=8;jettyHeight=4;" vertex="1" parent="1GEkmqp5lVpvh_jhBL9g-5">
                    <mxGeometry x="1" width="20" height="20" relative="1" as="geometry">
                        <mxPoint x="-27" y="7" as="offset"/>
                    </mxGeometry>
                </mxCell>
                <mxCell id="1GEkmqp5lVpvh_jhBL9g-7" value="disk 01" style="strokeWidth=1;html=1;shape=mxgraph.flowchart.database;whiteSpace=wrap;verticalAlign=middle;" vertex="1" parent="1GEkmqp5lVpvh_jhBL9g-8">
                    <mxGeometry x="80" y="100" width="80" height="50" as="geometry"/>
                </mxCell>
                <mxCell id="t3t1d7BaroL4Hck0YZ1I-3" value="disk 02" style="strokeWidth=1;html=1;shape=mxgraph.flowchart.database;whiteSpace=wrap;verticalAlign=middle;" vertex="1" parent="1GEkmqp5lVpvh_jhBL9g-8">
                    <mxGeometry x="200" y="100" width="80" height="50" as="geometry"/>
                </mxCell>
                <mxCell id="t3t1d7BaroL4Hck0YZ1I-4" value="disk ..." style="strokeWidth=1;html=1;shape=mxgraph.flowchart.database;whiteSpace=wrap;verticalAlign=middle;" vertex="1" parent="1GEkmqp5lVpvh_jhBL9g-8">
                    <mxGeometry x="320" y="100" width="80" height="50" as="geometry"/>
                </mxCell>
            </root>
        </mxGraphModel>
    </diagram>
    <diagram id="CAmtWDYfucujsJTvXxFi" name="测开环境">
        <mxGraphModel dx="1086" dy="689" grid="1" gridSize="10" guides="1" tooltips="1" connect="1" arrows="1" fold="1" page="1" pageScale="1" pageWidth="827" pageHeight="1169" background="#ffffff" math="0" shadow="0">
            <root>
                <mxCell id="0"/>
                <mxCell id="1" parent="0"/>
                <mxCell id="17" value="服务器 k8s Master One" style="verticalAlign=top;align=left;spacingTop=8;spacingLeft=2;spacingRight=12;shape=cube;size=10;direction=south;fontStyle=4;html=1;fillColor=#dae8fc;strokeColor=#6c8ebf;" parent="1" vertex="1">
                    <mxGeometry x="270" y="280" width="860" height="690" as="geometry"/>
                </mxCell>
                <mxCell id="18" value="namespace: codepod-server" style="rounded=0;whiteSpace=wrap;html=1;verticalAlign=top;" parent="1" vertex="1">
                    <mxGeometry x="300" y="360" width="380" height="390" as="geometry"/>
                </mxCell>
                <mxCell id="11" value="GateWay" style="html=1;dropTarget=0;movable=1;resizable=1;rotatable=1;deletable=1;editable=1;connectable=1;" parent="1" vertex="1">
                    <mxGeometry x="320" y="440" width="150" height="50" as="geometry"/>
                </mxCell>
                <mxCell id="12" value="" style="shape=module;jettyWidth=8;jettyHeight=4;" parent="11" vertex="1">
                    <mxGeometry x="1" width="20" height="20" relative="1" as="geometry">
                        <mxPoint x="-27" y="7" as="offset"/>
                    </mxGeometry>
                </mxCell>
                <mxCell id="20" value="User-Server" style="html=1;dropTarget=0;movable=1;resizable=1;rotatable=1;deletable=1;editable=1;connectable=1;" parent="1" vertex="1">
                    <mxGeometry x="320" y="520" width="150" height="50" as="geometry"/>
                </mxCell>
                <mxCell id="21" value="" style="shape=module;jettyWidth=8;jettyHeight=4;" parent="20" vertex="1">
                    <mxGeometry x="1" width="20" height="20" relative="1" as="geometry">
                        <mxPoint x="-27" y="7" as="offset"/>
                    </mxGeometry>
                </mxCell>
                <mxCell id="22" value="Workspace-Server" style="html=1;dropTarget=0;movable=1;resizable=1;rotatable=1;deletable=1;editable=1;connectable=1;" parent="1" vertex="1">
                    <mxGeometry x="490" y="520" width="170" height="50" as="geometry"/>
                </mxCell>
                <mxCell id="23" value="" style="shape=module;jettyWidth=8;jettyHeight=4;" parent="22" vertex="1">
                    <mxGeometry x="1" width="20" height="20" relative="1" as="geometry">
                        <mxPoint x="-27" y="7" as="offset"/>
                    </mxGeometry>
                </mxCell>
                <mxCell id="24" value="Workspace-Job" style="html=1;dropTarget=0;movable=1;resizable=1;rotatable=1;deletable=1;editable=1;connectable=1;" parent="1" vertex="1">
                    <mxGeometry x="320" y="600" width="150" height="50" as="geometry"/>
                </mxCell>
                <mxCell id="25" value="" style="shape=module;jettyWidth=8;jettyHeight=4;" parent="24" vertex="1">
                    <mxGeometry x="1" width="20" height="20" relative="1" as="geometry">
                        <mxPoint x="-27" y="7" as="offset"/>
                    </mxGeometry>
                </mxCell>
                <mxCell id="26" value="Dataspace-Job" style="html=1;dropTarget=0;movable=1;resizable=1;rotatable=1;deletable=1;editable=1;connectable=1;" parent="1" vertex="1">
                    <mxGeometry x="490" y="600" width="170" height="50" as="geometry"/>
                </mxCell>
                <mxCell id="27" value="" style="shape=module;jettyWidth=8;jettyHeight=4;" parent="26" vertex="1">
                    <mxGeometry x="1" width="20" height="20" relative="1" as="geometry">
                        <mxPoint x="-27" y="7" as="offset"/>
                    </mxGeometry>
                </mxCell>
                <mxCell id="28" value="namespace: codepod-workspace" style="rounded=0;whiteSpace=wrap;html=1;verticalAlign=top;" parent="1" vertex="1">
                    <mxGeometry x="710" y="360" width="380" height="390" as="geometry"/>
                </mxCell>
                <mxCell id="29" value="CodePod—User1" style="html=1;dropTarget=0;movable=1;resizable=1;rotatable=1;deletable=1;editable=1;connectable=1;" parent="1" vertex="1">
                    <mxGeometry x="780" y="430" width="170" height="50" as="geometry"/>
                </mxCell>
                <mxCell id="30" value="" style="shape=module;jettyWidth=8;jettyHeight=4;" parent="29" vertex="1">
                    <mxGeometry x="1" width="20" height="20" relative="1" as="geometry">
                        <mxPoint x="-27" y="7" as="offset"/>
                    </mxGeometry>
                </mxCell>
                <mxCell id="31" value="CodePod—User2" style="html=1;dropTarget=0;movable=1;resizable=1;rotatable=1;deletable=1;editable=1;connectable=1;" parent="1" vertex="1">
                    <mxGeometry x="780" y="510" width="170" height="50" as="geometry"/>
                </mxCell>
                <mxCell id="32" value="" style="shape=module;jettyWidth=8;jettyHeight=4;" parent="31" vertex="1">
                    <mxGeometry x="1" width="20" height="20" relative="1" as="geometry">
                        <mxPoint x="-27" y="7" as="offset"/>
                    </mxGeometry>
                </mxCell>
                <mxCell id="33" value="CodePod—User…" style="html=1;dropTarget=0;movable=1;resizable=1;rotatable=1;deletable=1;editable=1;connectable=1;" parent="1" vertex="1">
                    <mxGeometry x="780" y="580" width="170" height="50" as="geometry"/>
                </mxCell>
                <mxCell id="34" value="" style="shape=module;jettyWidth=8;jettyHeight=4;" parent="33" vertex="1">
                    <mxGeometry x="1" width="20" height="20" relative="1" as="geometry">
                        <mxPoint x="-27" y="7" as="offset"/>
                    </mxGeometry>
                </mxCell>
                <mxCell id="58" style="edgeStyle=none;html=1;endArrow=none;endFill=0;" parent="1" source="44" target="17" edge="1">
                    <mxGeometry relative="1" as="geometry"/>
                </mxCell>
                <mxCell id="44" value="服务器 (Docker Compose)" style="verticalAlign=top;align=left;spacingTop=8;spacingLeft=2;spacingRight=12;shape=cube;size=10;direction=south;fontStyle=4;html=1;fillColor=#ffe6cc;strokeColor=#d79b00;" parent="1" vertex="1">
                    <mxGeometry x="270" y="80" width="860" height="160" as="geometry"/>
                </mxCell>
                <mxCell id="45" value="nginx" style="html=1;dropTarget=0;movable=1;resizable=1;rotatable=1;deletable=1;editable=1;connectable=1;" parent="1" vertex="1">
                    <mxGeometry x="330" y="140" width="150" height="50" as="geometry"/>
                </mxCell>
                <mxCell id="46" value="" style="shape=module;jettyWidth=8;jettyHeight=4;" parent="45" vertex="1">
                    <mxGeometry x="1" width="20" height="20" relative="1" as="geometry">
                        <mxPoint x="-27" y="7" as="offset"/>
                    </mxGeometry>
                </mxCell>
                <mxCell id="50" value="Front-UI" style="html=1;dropTarget=0;movable=1;resizable=1;rotatable=1;deletable=1;editable=1;connectable=1;" parent="1" vertex="1">
                    <mxGeometry x="490" y="440" width="170" height="50" as="geometry"/>
                </mxCell>
                <mxCell id="51" value="" style="shape=module;jettyWidth=8;jettyHeight=4;" parent="50" vertex="1">
                    <mxGeometry x="1" width="20" height="20" relative="1" as="geometry">
                        <mxPoint x="-27" y="7" as="offset"/>
                    </mxGeometry>
                </mxCell>
                <mxCell id="1ZqNvHrauiWmupzvo6dR-59" value="docker compose" style="rounded=0;whiteSpace=wrap;html=1;verticalAlign=top;" parent="1" vertex="1">
                    <mxGeometry x="300" y="790" width="790" height="140" as="geometry"/>
                </mxCell>
                <mxCell id="36" value="MySQL" style="html=1;dropTarget=0;movable=1;resizable=1;rotatable=1;deletable=1;editable=1;connectable=1;" parent="1" vertex="1">
                    <mxGeometry x="320" y="830" width="150" height="50" as="geometry"/>
                </mxCell>
                <mxCell id="37" value="" style="shape=module;jettyWidth=8;jettyHeight=4;" parent="36" vertex="1">
                    <mxGeometry x="1" width="20" height="20" relative="1" as="geometry">
                        <mxPoint x="-27" y="7" as="offset"/>
                    </mxGeometry>
                </mxCell>
                <mxCell id="38" value="RocketMQ" style="html=1;dropTarget=0;movable=1;resizable=1;rotatable=1;deletable=1;editable=1;connectable=1;" parent="1" vertex="1">
                    <mxGeometry x="490" y="830" width="150" height="50" as="geometry"/>
                </mxCell>
                <mxCell id="39" value="" style="shape=module;jettyWidth=8;jettyHeight=4;" parent="38" vertex="1">
                    <mxGeometry x="1" width="20" height="20" relative="1" as="geometry">
                        <mxPoint x="-27" y="7" as="offset"/>
                    </mxGeometry>
                </mxCell>
                <mxCell id="42" value="Nacos" style="html=1;dropTarget=0;movable=1;resizable=1;rotatable=1;deletable=1;editable=1;connectable=1;" parent="1" vertex="1">
                    <mxGeometry x="660" y="830" width="100" height="50" as="geometry"/>
                </mxCell>
                <mxCell id="43" value="" style="shape=module;jettyWidth=8;jettyHeight=4;" parent="42" vertex="1">
                    <mxGeometry x="1" width="20" height="20" relative="1" as="geometry">
                        <mxPoint x="-27" y="7" as="offset"/>
                    </mxGeometry>
                </mxCell>
                <mxCell id="56" value="jenkins" style="html=1;dropTarget=0;movable=1;resizable=1;rotatable=1;deletable=1;editable=1;connectable=1;" parent="1" vertex="1">
                    <mxGeometry x="790" y="830" width="105" height="50" as="geometry"/>
                </mxCell>
                <mxCell id="57" value="" style="shape=module;jettyWidth=8;jettyHeight=4;" parent="56" vertex="1">
                    <mxGeometry x="1" width="20" height="20" relative="1" as="geometry">
                        <mxPoint x="-27" y="7" as="offset"/>
                    </mxGeometry>
                </mxCell>
                <mxCell id="StzZy81D_xUvkuqRyOlx-58" value="Harbor" style="html=1;dropTarget=0;movable=1;resizable=1;rotatable=1;deletable=1;editable=1;connectable=1;" parent="1" vertex="1">
                    <mxGeometry x="930" y="830" width="105" height="50" as="geometry"/>
                </mxCell>
                <mxCell id="StzZy81D_xUvkuqRyOlx-59" value="" style="shape=module;jettyWidth=8;jettyHeight=4;" parent="StzZy81D_xUvkuqRyOlx-58" vertex="1">
                    <mxGeometry x="1" width="20" height="20" relative="1" as="geometry">
                        <mxPoint x="-27" y="7" as="offset"/>
                    </mxGeometry>
                </mxCell>
            </root>
        </mxGraphModel>
    </diagram>
</mxfile>